<svg width="48" height="48" viewBox="0 0 48 48" fill="none" xmlns="http://www.w3.org/2000/svg">
<path d="M41.92 40C40 40.96 37.44 40.32 36.16 38.4L32.64 33.92H15.36L11.84 38.4C10.24 40.64 7.36 40.96 5.12 39.36C3.52 38.08 2.88 36.16 3.2 34.56L5.44 22.72C6.08 18.88 9.6 16 13.44 16H22.4V11.2C22.4 8.63999 24.32 6.39999 26.88 6.39999H36.8C37.76 6.39999 38.4 7.03999 38.4 7.99999C38.4 8.95999 37.76 9.59999 36.8 9.59999H27.2C26.24 9.59999 25.6 10.24 25.6 10.88V16H34.56C38.4 16 41.92 18.88 42.56 22.72L44.8 34.56C45.12 36.8 44.16 39.04 41.92 40ZM19.2 24C19.2 21.44 16.96 19.2 14.4 19.2C11.84 19.2 9.6 21.44 9.6 24C9.6 26.56 11.84 28.8 14.4 28.8C16.96 28.8 19.2 26.56 19.2 24ZM38.4 24C38.4 23.04 37.76 22.4 36.8 22.4H35.2V20.8C35.2 19.84 34.56 19.2 33.6 19.2C32.64 19.2 32 19.84 32 20.8V22.4H30.4C29.44 22.4 28.8 23.04 28.8 24C28.8 24.96 29.44 25.6 30.4 25.6H32V27.2C32 28.16 32.64 28.8 33.6 28.8C34.56 28.8 35.2 28.16 35.2 27.2V25.6H36.8C37.76 25.6 38.4 24.96 38.4 24Z" fill="white"/>
</svg>
